<svg width="655" height="654" viewBox="0 0 655 654" fill="none" xmlns="http://www.w3.org/2000/svg">
<path d="M449.243 453.167C401.794 500.616 394.845 562.087 327.743 562.087C260.64 562.087 206.243 453.167 206.243 453.167C206.243 453.167 107.243 398.77 107.243 331.667C107.243 264.565 206.243 210.167 206.243 210.167C206.243 210.167 260.64 88.6675 327.743 88.6675C394.845 88.6675 449.243 210.167 449.243 210.167C449.243 210.167 545.243 264.565 545.243 331.667C545.243 398.77 496.691 405.719 449.243 453.167Z" fill="#D65B1D"/>
<path d="M343.12 485.337C281.905 491.537 218.162 537.488 170.493 498.587C122.823 459.686 170.493 344.464 170.493 344.464C170.493 344.464 105.842 229.756 144.743 182.087C183.643 134.417 311.365 171.837 311.365 171.837C311.365 171.837 436.323 116.686 483.992 155.587C531.662 194.487 483.993 312.709 483.993 312.709C483.993 312.709 550.144 421.917 511.243 469.587C472.342 517.256 404.335 479.136 343.12 485.337Z" fill="#B44C17"/>
<path d="M191.743 520.087H463.743C465.4 520.087 466.743 518.744 466.743 517.087V128.087C466.743 126.43 465.4 125.087 463.743 125.087H191.743C190.086 125.087 188.743 126.43 188.743 128.087V517.087C188.743 518.744 190.086 520.087 191.743 520.087Z" fill="#F0F0F0" stroke="#FE6D24" stroke-width="15"/>
<path d="M328.243 64.0867C298.245 64.0867 301.743 102.087 301.743 102.087L354.743 102.087C354.743 102.087 358.242 64.0867 328.243 64.0867Z" fill="#A1A0A5"/>
<rect x="263.243" y="102.087" width="133" height="44" rx="5" fill="#A1A0A5"/>
<rect x="283.743" y="109.087" width="90" height="29" rx="5" fill="#D9D9D9"/>
<circle cx="328.243" cy="87.0867" r="12" fill="#D9D9D9"/>
<path d="M433.743 435.587H407.743C404.981 435.587 402.743 437.825 402.743 440.587V467.087C402.743 469.848 404.981 472.087 407.743 472.087H433.743C436.504 472.087 438.743 469.848 438.743 467.087V440.587C438.743 437.825 436.504 435.587 433.743 435.587Z" stroke="#D3D3D3" stroke-width="5"/>
<path d="M433.743 349.087H407.743C404.981 349.087 402.743 351.325 402.743 354.087V380.587C402.743 383.348 404.981 385.587 407.743 385.587H433.743C436.504 385.587 438.743 383.348 438.743 380.587V354.087C438.743 351.325 436.504 349.087 433.743 349.087Z" stroke="#D3D3D3" stroke-width="5"/>
<path d="M433.743 262.587H407.743C404.981 262.587 402.743 264.825 402.743 267.587V294.087C402.743 296.848 404.981 299.087 407.743 299.087H433.743C436.504 299.087 438.743 296.848 438.743 294.087V267.587C438.743 264.825 436.504 262.587 433.743 262.587Z" stroke="#D3D3D3" stroke-width="5"/>
<path d="M433.743 176.087H407.743C404.981 176.087 402.743 178.325 402.743 181.087V207.587C402.743 210.348 404.981 212.587 407.743 212.587H433.743C436.504 212.587 438.743 210.348 438.743 207.587V181.087C438.743 178.325 436.504 176.087 433.743 176.087Z" stroke="#D3D3D3" stroke-width="5"/>
<path d="M394.488 346.92C394.295 346.763 394.056 346.662 393.803 346.655C393.551 346.648 393.309 346.734 393.126 346.898C392.943 347.061 392.831 347.292 392.81 347.544C392.789 347.795 392.863 348.045 392.997 348.253C393.836 349.55 394.685 350.836 395.545 352.113C401.873 361.51 408.779 370.39 416.262 378.754L419.358 382.214L422.322 378.64C432.682 366.147 442.398 353.121 451.472 339.562C452.324 338.288 453.171 337.009 454.012 335.725C454.151 335.514 454.22 335.259 454.191 335.005C454.162 334.75 454.039 334.519 453.846 334.359C453.653 334.199 453.403 334.121 453.148 334.14C452.892 334.158 452.655 334.274 452.473 334.448C451.367 335.513 450.267 336.582 449.173 337.655C437.526 349.081 426.523 361.041 416.164 373.533L422.224 373.419C414.741 365.056 406.68 357.209 398.042 349.88C396.868 348.883 395.683 347.897 394.488 346.92Z" fill="#FE6D24"/>
<path d="M394.488 258.92C394.295 258.763 394.056 258.662 393.803 258.655C393.551 258.648 393.309 258.734 393.126 258.898C392.943 259.061 392.831 259.292 392.81 259.544C392.789 259.795 392.863 260.045 392.997 260.253C393.836 261.55 394.685 262.836 395.545 264.113C401.873 273.51 408.779 282.39 416.262 290.754L419.358 294.214L422.322 290.64C432.682 278.147 442.398 265.121 451.472 251.562C452.324 250.288 453.171 249.009 454.012 247.725C454.151 247.514 454.22 247.259 454.191 247.005C454.162 246.75 454.039 246.519 453.846 246.359C453.653 246.199 453.403 246.121 453.148 246.14C452.892 246.158 452.655 246.274 452.473 246.448C451.367 247.513 450.267 248.582 449.173 249.655C437.526 261.081 426.523 273.041 416.164 285.533L422.224 285.419C414.741 277.056 406.68 269.209 398.042 261.88C396.868 260.883 395.683 259.897 394.488 258.92Z" fill="#FE6D24"/>
<path d="M394.488 170.92C394.295 170.763 394.056 170.662 393.803 170.655C393.551 170.648 393.309 170.734 393.126 170.898C392.943 171.061 392.831 171.292 392.81 171.544C392.789 171.795 392.863 172.045 392.997 172.253C393.836 173.55 394.685 174.836 395.545 176.113C401.873 185.51 408.779 194.39 416.262 202.754L419.358 206.214L422.322 202.64C432.682 190.147 442.398 177.121 451.472 163.562C452.324 162.288 453.171 161.009 454.012 159.725C454.151 159.514 454.22 159.259 454.191 159.005C454.162 158.75 454.039 158.519 453.846 158.359C453.653 158.199 453.403 158.121 453.148 158.14C452.892 158.158 452.655 158.274 452.473 158.448C451.367 159.513 450.267 160.582 449.173 161.655C437.526 173.081 426.523 185.041 416.164 197.533L422.224 197.419C414.741 189.056 406.68 181.209 398.042 173.88C396.868 172.883 395.683 171.897 394.488 170.92Z" fill="#FE6D24"/>
<line x1="212.743" y1="179.587" x2="343.743" y2="179.587" stroke="#A1A0A5" stroke-width="7" stroke-linecap="round"/>
<line x1="212.743" y1="264.587" x2="343.743" y2="264.587" stroke="#A1A0A5" stroke-width="7" stroke-linecap="round"/>
<line x1="212.743" y1="349.587" x2="343.743" y2="349.587" stroke="#A1A0A5" stroke-width="7" stroke-linecap="round"/>
<line x1="212.743" y1="434.587" x2="343.743" y2="434.587" stroke="#A1A0A5" stroke-width="7" stroke-linecap="round"/>
<line x1="217.243" y1="193.087" x2="280.243" y2="193.087" stroke="#D3D3D3" stroke-width="8" stroke-linecap="round"/>
<line x1="217.243" y1="282.087" x2="280.243" y2="282.087" stroke="#D3D3D3" stroke-width="8" stroke-linecap="round"/>
<line x1="217.243" y1="371.087" x2="280.243" y2="371.087" stroke="#D3D3D3" stroke-width="8" stroke-linecap="round"/>
<line x1="217.243" y1="460.087" x2="280.243" y2="460.087" stroke="#D3D3D3" stroke-width="8" stroke-linecap="round"/>
<line x1="314.243" y1="193.087" x2="376.243" y2="193.087" stroke="#D3D3D3" stroke-width="8" stroke-linecap="round"/>
<line x1="314.243" y1="282.087" x2="376.243" y2="282.087" stroke="#D3D3D3" stroke-width="8" stroke-linecap="round"/>
<line x1="314.243" y1="371.087" x2="376.243" y2="371.087" stroke="#D3D3D3" stroke-width="8" stroke-linecap="round"/>
<line x1="314.243" y1="460.087" x2="376.243" y2="460.087" stroke="#D3D3D3" stroke-width="8" stroke-linecap="round"/>
<line x1="217.243" y1="207.087" x2="351.243" y2="207.087" stroke="#D3D3D3" stroke-width="8" stroke-linecap="round"/>
<line x1="217.243" y1="296.087" x2="351.243" y2="296.087" stroke="#D3D3D3" stroke-width="8" stroke-linecap="round"/>
<line x1="217.243" y1="385.087" x2="351.243" y2="385.087" stroke="#D3D3D3" stroke-width="8" stroke-linecap="round"/>
<line x1="217.243" y1="474.087" x2="351.243" y2="474.087" stroke="#D3D3D3" stroke-width="8" stroke-linecap="round"/>
<line x1="217.243" y1="219.087" x2="324.243" y2="219.087" stroke="#D3D3D3" stroke-width="8" stroke-linecap="round"/>
<line x1="217.243" y1="308.087" x2="324.243" y2="308.087" stroke="#D3D3D3" stroke-width="8" stroke-linecap="round"/>
<line x1="217.243" y1="397.087" x2="324.243" y2="397.087" stroke="#D3D3D3" stroke-width="8" stroke-linecap="round"/>
<line x1="217.243" y1="486.087" x2="324.243" y2="486.087" stroke="#D3D3D3" stroke-width="8" stroke-linecap="round"/>
</svg>
