<svg width="540" height="142" viewBox="0 0 540 142" fill="none" xmlns="http://www.w3.org/2000/svg">
<path d="M164.8 117V68.25H172.925V75.2375C174.713 72.5833 176.96 70.6062 179.669 69.3062C182.431 67.9521 185.329 67.275 188.363 67.275C191.667 67.275 194.7 68.0604 197.462 69.6312C200.225 71.1479 202.446 73.2875 204.125 76.05C206.021 73.125 208.458 70.9312 211.438 69.4688C214.471 68.0062 217.667 67.275 221.025 67.275C224.708 67.275 228.067 68.1417 231.1 69.875C234.188 71.6083 236.625 74.0458 238.412 77.1875C240.254 80.275 241.175 83.9312 241.175 88.1562V117H232.4V89.2125C232.4 84.7708 231.127 81.4125 228.581 79.1375C226.09 76.8083 223.192 75.6437 219.888 75.6437C217.829 75.6437 215.825 76.1042 213.875 77.025C211.979 77.9458 210.408 79.3812 209.163 81.3312C207.971 83.2812 207.375 85.8271 207.375 88.9687V117H198.6V89.2125C198.6 86.125 197.977 83.5792 196.731 81.575C195.54 79.5708 193.969 78.0812 192.019 77.1062C190.123 76.0771 188.146 75.5625 186.088 75.5625C184.083 75.5625 182.106 76.0229 180.156 76.9437C178.26 77.8646 176.69 79.3 175.444 81.25C174.198 83.2 173.575 85.7729 173.575 88.9687V117H164.8ZM255.749 117V68.25H263.874V75.2375C265.662 72.5833 267.91 70.6062 270.618 69.3062C273.38 67.9521 276.278 67.275 279.312 67.275C282.616 67.275 285.649 68.0604 288.412 69.6312C291.174 71.1479 293.395 73.2875 295.074 76.05C296.97 73.125 299.408 70.9312 302.387 69.4688C305.42 68.0062 308.616 67.275 311.974 67.275C315.658 67.275 319.016 68.1417 322.049 69.875C325.137 71.6083 327.574 74.0458 329.362 77.1875C331.203 80.275 332.124 83.9312 332.124 88.1562V117H323.349V89.2125C323.349 84.7708 322.076 81.4125 319.53 79.1375C317.039 76.8083 314.141 75.6437 310.837 75.6437C308.778 75.6437 306.774 76.1042 304.824 77.025C302.928 77.9458 301.358 79.3812 300.112 81.3312C298.92 83.2812 298.324 85.8271 298.324 88.9687V117H289.549V89.2125C289.549 86.125 288.926 83.5792 287.68 81.575C286.489 79.5708 284.918 78.0812 282.968 77.1062C281.072 76.0771 279.095 75.5625 277.037 75.5625C275.033 75.5625 273.055 76.0229 271.105 76.9437C269.21 77.8646 267.639 79.3 266.393 81.25C265.147 83.2 264.524 85.7729 264.524 88.9687V117H255.749ZM369.936 117.975C364.844 117.975 360.267 116.838 356.205 114.562C352.196 112.287 349.028 109.2 346.698 105.3C344.423 101.346 343.286 96.9583 343.286 92.1375C343.286 87.5333 344.396 83.3625 346.617 79.625C348.838 75.8333 351.817 72.8271 355.555 70.6062C359.346 68.3854 363.517 67.275 368.067 67.275C372.563 67.275 376.68 68.3583 380.417 70.525C384.155 72.6375 387.134 75.5083 389.355 79.1375C391.576 82.7667 392.686 86.8833 392.686 91.4875V95.0625H360.836C359.428 95.0625 357.992 95.0083 356.53 94.9C355.067 94.7917 353.632 94.6292 352.223 94.4125C352.819 98.7458 354.769 102.375 358.073 105.3C361.432 108.225 365.413 109.688 370.017 109.688C373.105 109.688 375.976 108.983 378.63 107.575C381.284 106.167 383.423 104.298 385.048 101.969L387.486 111.962C385.157 113.858 382.476 115.348 379.442 116.431C376.463 117.46 373.294 117.975 369.936 117.975ZM351.98 88.4812C354.905 87.9937 357.857 87.75 360.836 87.75H377.005C378.196 87.75 379.361 87.8042 380.498 87.9125C381.69 87.9667 382.882 88.0479 384.073 88.1562C383.315 84.3646 381.419 81.25 378.386 78.8125C375.353 76.3208 371.913 75.075 368.067 75.075C364.113 75.075 360.646 76.4021 357.667 79.0562C354.688 81.6562 352.792 84.7979 351.98 88.4812ZM404.399 117V68.25H412.524V77.1875C414.257 74.3167 416.559 72.0417 419.43 70.3625C422.301 68.6292 425.713 67.7625 429.667 67.7625L431.861 76.5375C430.832 76.2125 429.64 76.05 428.286 76.05C423.736 76.05 420.08 77.5125 417.317 80.4375C414.555 83.3083 413.174 87.425 413.174 92.7875V117H404.399ZM461.787 117.975C457.02 117.975 452.687 116.838 448.787 114.562C444.887 112.287 441.772 109.227 439.443 105.381C437.114 101.535 435.949 97.2833 435.949 92.625C435.949 87.9667 437.114 83.7146 439.443 79.8687C441.772 76.0229 444.887 72.9625 448.787 70.6875C452.687 68.4125 457.02 67.275 461.787 67.275C465.307 67.275 468.612 67.8979 471.699 69.1437C474.787 70.3896 477.495 72.0417 479.824 74.1L477.143 85.15C475.789 82.4417 473.73 80.1667 470.968 78.325C468.259 76.4833 465.172 75.5625 461.705 75.5625C458.564 75.5625 455.693 76.3479 453.093 77.9187C450.547 79.4354 448.516 81.4938 446.999 84.0938C445.482 86.6396 444.724 89.4833 444.724 92.625C444.724 95.7125 445.482 98.5562 446.999 101.156C448.516 103.756 450.547 105.842 453.093 107.413C455.693 108.929 458.564 109.688 461.705 109.688C465.172 109.688 468.259 108.794 470.968 107.006C473.73 105.219 475.789 102.917 477.143 100.1L479.824 111.15C477.495 113.208 474.787 114.86 471.699 116.106C468.612 117.352 465.307 117.975 461.787 117.975ZM488.518 141.375L504.362 109.85L483.724 68.25H493.637L504.037 89.375C504.957 91.2708 505.851 93.1396 506.718 94.9812C507.584 96.8229 508.451 99.0437 509.318 101.644C510.239 99.0437 511.105 96.8229 511.918 94.9812C512.784 93.0854 513.705 91.2167 514.68 89.375L525.243 68.25H534.587L498.024 141.375H488.518Z" fill="#FE6D24"/>
<path d="M40.625 114H2.53906V110.572H12.6953V41.2559H2.53906V37.8281H40.625V41.2559H30.4688V110.572H37.1973C38.9746 110.742 40.1172 111.884 40.625 114ZM77.4414 110.699C77.9492 110.699 78.4147 110.742 78.8379 110.826C79.9382 110.995 80.4883 112.053 80.4883 114H45.0684V110.699C51.3314 110.699 54.5475 108.499 54.7168 104.098V34.7812H45.0684V31.4805H70.8398V85.9434L95.3418 62.7109H86.0742V59.4102H107.529C107.529 59.8333 107.487 60.2565 107.402 60.6797C107.148 62.0339 106.09 62.7109 104.229 62.7109C103.551 62.7109 102.874 62.7533 102.197 62.8379C100.589 63.1764 98.304 64.7422 95.3418 67.5352L85.9473 76.5488L106.387 110.699H108.291C108.883 110.699 109.391 110.742 109.814 110.826C110.83 111.08 111.338 112.138 111.338 114L90.2637 114.127L74.7754 87.3398L70.8398 91.1484V110.699H77.4414Z" fill="#FF6500"/>
<path d="M40.625 114H2.53906V110.572H12.6953V41.2559H2.53906V37.8281H40.625V41.2559H30.4688V110.572H37.1973C38.9746 110.742 40.1172 111.884 40.625 114ZM77.4414 110.699C77.9492 110.699 78.4147 110.742 78.8379 110.826C79.9382 110.995 80.4883 112.053 80.4883 114H45.0684V110.699C51.3314 110.699 54.5475 108.499 54.7168 104.098V34.7812H45.0684V31.4805H70.8398V85.9434L95.3418 62.7109H86.0742V59.4102H107.529C107.529 59.8333 107.487 60.2565 107.402 60.6797C107.148 62.0339 106.09 62.7109 104.229 62.7109C103.551 62.7109 102.874 62.7533 102.197 62.8379C100.589 63.1764 98.304 64.7422 95.3418 67.5352L85.9473 76.5488L106.387 110.699H108.291C108.883 110.699 109.391 110.742 109.814 110.826C110.83 111.08 111.338 112.138 111.338 114L90.2637 114.127L74.7754 87.3398L70.8398 91.1484V110.699H77.4414Z" fill="#FE6D24"/>
<path d="M32.743 19.8L28.1635 25.5L22.8209 16L17.4782 25.5L12.8987 19.8V32.15C12.8987 32.9059 13.14 33.6308 13.5694 34.1653C13.9988 34.6997 14.5812 35 15.1885 35H30.4532C31.0605 35 31.6429 34.6997 32.0723 34.1653C32.5017 33.6308 32.743 32.9059 32.743 32.15V19.8Z" fill="#FE6D24"/>
<path d="M108.215 71.2774C108.217 70.1098 109.129 69.1673 110.261 69.1634L114.132 69.1498C116.004 69.1432 117.662 70.261 118.433 71.9438L153.404 71.8211C155.642 71.8132 157.272 74.0021 156.682 76.2339L153.173 89.6158C152.446 92.3747 150.018 94.3057 147.253 94.3154L122.705 94.4016L123.161 96.9018C123.346 97.8931 124.188 98.61 125.166 98.6066L149.697 98.5205C150.828 98.5165 151.737 99.4526 151.736 100.62C151.734 101.788 150.822 102.73 149.69 102.734L125.16 102.82C122.216 102.831 119.692 100.68 119.152 97.7059L114.797 73.9317C114.738 73.5983 114.458 73.3623 114.126 73.3634L110.254 73.377C109.123 73.381 108.214 72.4449 108.215 71.2774ZM119.049 109.864C119.049 109.311 119.156 108.763 119.362 108.251C119.568 107.739 119.869 107.273 120.249 106.881C120.629 106.488 121.08 106.176 121.576 105.963C122.071 105.749 122.603 105.638 123.139 105.636C123.675 105.635 124.206 105.742 124.701 105.952C125.197 106.162 125.646 106.471 126.025 106.86C126.404 107.25 126.704 107.714 126.908 108.224C127.113 108.735 127.218 109.282 127.217 109.836C127.216 110.389 127.11 110.937 126.904 111.449C126.698 111.961 126.396 112.427 126.016 112.819C125.636 113.212 125.186 113.524 124.69 113.738C124.194 113.951 123.663 114.062 123.126 114.064C122.59 114.066 122.059 113.959 121.564 113.748C121.069 113.538 120.619 113.23 120.24 112.84C119.862 112.45 119.561 111.986 119.357 111.476C119.152 110.965 119.048 110.418 119.049 109.864ZM147.644 105.55C148.727 105.547 149.765 105.987 150.53 106.774C151.295 107.562 151.724 108.632 151.722 109.75C151.72 110.867 151.288 111.941 150.521 112.733C149.754 113.526 148.715 113.974 147.631 113.978C146.548 113.982 145.51 113.541 144.745 112.754C143.981 111.966 143.552 110.896 143.554 109.778C143.555 108.661 143.987 107.588 144.754 106.795C145.521 106.002 146.561 105.554 147.644 105.55Z" fill="#FE6D24"/>
<path d="M108.215 71.2774C108.217 70.1098 109.129 69.1673 110.261 69.1634L114.132 69.1498C116.004 69.1432 117.662 70.261 118.433 71.9438L153.404 71.8211C155.642 71.8132 157.272 74.0021 156.682 76.2339L153.173 89.6158C152.446 92.3747 150.018 94.3057 147.253 94.3154L122.705 94.4016L123.161 96.9018C123.346 97.8931 124.188 98.61 125.166 98.6066L149.697 98.5205C150.828 98.5165 151.737 99.4526 151.736 100.62C151.734 101.788 150.822 102.73 149.69 102.734L125.16 102.82C122.216 102.831 119.692 100.68 119.152 97.7059L114.797 73.9317C114.738 73.5983 114.458 73.3623 114.126 73.3634L110.254 73.377C109.123 73.381 108.214 72.4449 108.215 71.2774ZM119.049 109.864C119.049 109.311 119.156 108.763 119.362 108.251C119.568 107.739 119.869 107.273 120.249 106.881C120.629 106.488 121.08 106.176 121.576 105.963C122.071 105.749 122.603 105.638 123.139 105.636C123.675 105.635 124.206 105.742 124.701 105.952C125.197 106.162 125.646 106.471 126.025 106.86C126.404 107.25 126.704 107.714 126.908 108.224C127.113 108.735 127.218 109.282 127.217 109.836C127.216 110.389 127.11 110.937 126.904 111.449C126.698 111.961 126.396 112.427 126.016 112.819C125.636 113.212 125.186 113.524 124.69 113.738C124.194 113.951 123.663 114.062 123.126 114.064C122.59 114.066 122.059 113.959 121.564 113.748C121.069 113.538 120.619 113.23 120.24 112.84C119.862 112.45 119.561 111.986 119.357 111.476C119.152 110.965 119.048 110.418 119.049 109.864ZM147.644 105.55C148.727 105.547 149.765 105.987 150.53 106.774C151.295 107.562 151.724 108.632 151.722 109.75C151.72 110.867 151.288 111.941 150.521 112.733C149.754 113.526 148.715 113.974 147.631 113.978C146.548 113.982 145.51 113.541 144.745 112.754C143.981 111.966 143.552 110.896 143.554 109.778C143.555 108.661 143.987 107.588 144.754 106.795C145.521 106.002 146.561 105.554 147.644 105.55Z" fill="#FE6D24"/>
</svg>
