<svg width="762" height="782" viewBox="0 0 762 782" fill="none" xmlns="http://www.w3.org/2000/svg">
<path d="M140.689 432.597C107.909 381.916 223.363 331.41 223.363 331.41C223.363 331.41 165.246 238.107 191.716 197.931C215.961 161.132 350.667 246.977 350.667 246.977C350.667 246.977 391.121 143.326 448.761 175.674C491.406 199.608 480.619 271.313 480.619 271.313C480.619 271.313 618.747 217.288 643.209 250.648C669.414 286.383 585.848 382.784 585.848 382.784C585.848 382.784 705.793 480.164 653.908 516.737C621.899 539.3 533.224 506.107 533.224 506.107C533.224 506.107 537.542 610.929 495.777 626.117C448.207 643.415 396.189 514.657 396.189 514.657C396.189 514.657 320.961 612.709 279.92 574.484C243.932 540.966 271.534 457.101 271.534 457.101C271.534 457.101 166.296 472.188 140.689 432.597Z" fill="#D65B1D"/>
<path d="M128.5 337.5C118.517 276.653 214 254.5 214 254.5C214 254.5 245.265 191.599 286.349 164.281C323.979 139.259 420.943 233.236 420.943 233.236C420.943 233.236 522.478 153.034 563.147 206.511C593.236 246.077 577.193 317.5 577.193 317.5C577.193 317.5 677.342 344.013 686.608 385.214C696.535 429.35 577.193 475.819 577.193 475.819C577.193 475.819 629.221 597.198 565.865 610.986C526.78 619.492 462.572 561.611 462.572 561.611C462.572 561.611 425.184 624.256 379.988 621.919C328.511 619.258 326.829 544.261 326.829 544.261C326.829 544.261 216.109 593.622 193.337 541.223C173.369 495.276 214 410 214 410C214 410 136.298 385.031 128.5 337.5Z" fill="#B44C17"/>
<path d="M531 132.465H268C254.193 132.465 243 143.658 243 157.465V624.546C243 638.353 254.193 649.546 268 649.546H531C544.807 649.546 556 638.353 556 624.546V157.465C556 143.658 544.807 132.465 531 132.465Z" fill="#F0F0F0"/>
<path d="M268 116.965C268 127.299 268 137.632 268 147.965C294.954 147.965 321.908 147.965 348.862 147.965C409.575 147.965 470.287 147.965 531 147.965C536.044 147.822 540.643 152.421 540.5 157.465C540.5 158.344 540.5 159.224 540.5 160.103C540.5 314.917 548.151 469.732 549.344 624.546C549.706 634.311 540.858 643.299 531 643.046C443.333 643.046 355.667 643.046 268 643.046C258.153 643.294 249.252 634.393 249.5 624.546C249.5 623.667 249.5 622.787 249.5 621.908C249.5 480.957 251.614 340.007 255.842 199.056C256.258 185.192 256.695 171.329 257.151 157.465C257.457 151.663 262.991 147.314 268 147.965C268 137.632 268 127.299 268 116.965C246.376 116.968 227.895 136.634 228.849 157.465C229.305 171.329 229.742 185.192 230.158 199.056C234.386 340.007 236.5 480.957 236.5 621.908C236.5 622.787 236.5 623.667 236.5 624.546C236.1 641.332 251.214 656.445 268 656.046C355.667 656.046 443.333 656.046 531 656.046C547.775 656.44 562.942 641.414 562.656 624.546C563.849 469.732 571.5 314.917 571.5 160.103C571.5 159.224 571.5 158.344 571.5 157.465C572.005 135.876 552.589 116.461 531 116.965C470.287 116.965 409.575 116.965 348.862 116.965C321.908 116.965 294.954 116.965 268 116.965ZM268 147.965V116.965V147.965Z" fill="#FE6D24"/>
<path d="M516 463.5L482 479.5M482 479.5L496 463.5M482 479.5L468.5 463.5M482 479.5L450.5 463.5" stroke="#D65B1D"/>
<circle cx="404.5" cy="131.5" r="8.5" fill="#B44C17"/>
<path d="M297.232 190.628C297.4 190.628 297.784 190.628 298.384 190.628C299.008 190.604 299.716 190.592 300.508 190.592C301.3 190.592 302.116 190.592 302.956 190.592C303.82 190.568 304.588 190.556 305.26 190.556C307.3 190.556 309.052 190.868 310.516 191.492C312.004 192.092 313.228 192.944 314.188 194.048C315.148 195.152 315.856 196.472 316.312 198.008C316.768 199.52 316.996 201.188 316.996 203.012C316.996 204.884 316.756 206.564 316.276 208.052C315.82 209.54 315.1 210.812 314.116 211.868C313.156 212.9 311.932 213.692 310.444 214.244C308.956 214.796 307.192 215.072 305.152 215.072C304.456 215.072 303.82 215.06 303.244 215.036C302.668 215.036 302.08 215.036 301.48 215.036C300.88 215.036 300.244 215.024 299.572 215C298.9 215 298.12 215 297.232 215V190.628ZM305.008 194.732C304.6 194.732 304.288 194.744 304.072 194.768C303.856 194.768 303.556 194.768 303.172 194.768V210.86C303.484 210.884 303.76 210.896 304 210.896C304.24 210.896 304.576 210.896 305.008 210.896C306.064 210.896 306.94 210.716 307.636 210.356C308.356 209.996 308.932 209.48 309.364 208.808C309.796 208.136 310.108 207.32 310.3 206.36C310.492 205.376 310.588 204.284 310.588 203.084C310.588 197.516 308.728 194.732 305.008 194.732ZM329.361 202.112C329.097 202.112 328.809 202.184 328.497 202.328C328.185 202.472 327.885 202.7 327.597 203.012C327.309 203.3 327.069 203.684 326.877 204.164C326.685 204.62 326.589 205.172 326.589 205.82V215H320.901V205.64C320.901 204.2 320.793 203.012 320.577 202.076C320.385 201.116 320.157 200.336 319.893 199.736C319.605 199.064 319.281 198.524 318.921 198.116L323.493 196.676C323.685 196.916 323.889 197.192 324.105 197.504C324.273 197.768 324.453 198.104 324.645 198.512C324.837 198.92 324.993 199.388 325.113 199.916C325.713 198.764 326.421 197.936 327.237 197.432C328.077 196.928 329.061 196.676 330.189 196.676C330.693 196.676 331.137 196.724 331.521 196.82C331.929 196.892 332.265 196.976 332.529 197.072L331.053 202.508C330.885 202.412 330.657 202.328 330.369 202.256C330.105 202.16 329.769 202.112 329.361 202.112ZM341.066 196.568C343.923 196.568 345.999 197.384 347.295 199.016C348.615 200.648 349.275 202.904 349.275 205.784C349.275 207.152 349.095 208.424 348.735 209.6C348.399 210.752 347.871 211.76 347.151 212.624C346.455 213.464 345.567 214.136 344.487 214.64C343.431 215.12 342.195 215.36 340.779 215.36C339.339 215.36 338.091 215.156 337.035 214.748C336.003 214.316 335.151 213.704 334.479 212.912C333.831 212.12 333.339 211.16 333.003 210.032C332.691 208.88 332.535 207.596 332.535 206.18C332.535 204.812 332.703 203.54 333.039 202.364C333.399 201.188 333.927 200.18 334.623 199.34C335.343 198.476 336.231 197.804 337.287 197.324C338.367 196.82 339.627 196.568 341.066 196.568ZM340.743 200.852C340.311 200.852 339.951 200.984 339.663 201.248C339.375 201.488 339.147 201.836 338.979 202.292C338.835 202.724 338.727 203.24 338.655 203.84C338.607 204.44 338.583 205.088 338.583 205.784C338.583 206.504 338.619 207.188 338.691 207.836C338.763 208.484 338.883 209.048 339.051 209.528C339.243 210.008 339.507 210.392 339.843 210.68C340.179 210.944 340.599 211.076 341.103 211.076C341.535 211.076 341.895 210.944 342.183 210.68C342.471 210.416 342.687 210.068 342.831 209.636C342.999 209.18 343.107 208.652 343.155 208.052C343.227 207.452 343.263 206.816 343.263 206.144C343.263 205.4 343.227 204.716 343.155 204.092C343.083 203.444 342.951 202.88 342.759 202.4C342.591 201.92 342.339 201.548 342.003 201.284C341.667 200.996 341.247 200.852 340.743 200.852ZM352.858 222.956V205.64C352.858 204.2 352.75 203.012 352.534 202.076C352.342 201.116 352.114 200.336 351.85 199.736C351.562 199.064 351.238 198.524 350.878 198.116L355.45 196.676C355.738 196.964 356.002 197.312 356.242 197.72C356.434 198.056 356.626 198.488 356.818 199.016C357.01 199.52 357.154 200.108 357.25 200.78C357.706 199.412 358.33 198.392 359.122 197.72C359.938 197.024 360.994 196.676 362.29 196.676C363.418 196.676 364.402 196.892 365.242 197.324C366.106 197.756 366.814 198.368 367.366 199.16C367.942 199.928 368.362 200.864 368.626 201.968C368.914 203.072 369.058 204.308 369.058 205.676C369.058 207.02 368.842 208.28 368.41 209.456C367.978 210.608 367.366 211.616 366.574 212.48C365.806 213.32 364.894 213.992 363.838 214.496C362.782 214.976 361.642 215.216 360.418 215.216C359.746 215.216 359.122 215.144 358.546 215V221.984L352.858 222.956ZM361.174 200.852C360.814 200.852 360.466 201.008 360.13 201.32C359.818 201.608 359.542 202.004 359.302 202.508C359.062 202.988 358.87 203.564 358.726 204.236C358.606 204.884 358.546 205.568 358.546 206.288V210.788C358.714 210.836 358.942 210.896 359.23 210.968C359.518 211.016 359.782 211.04 360.022 211.04C360.598 211.04 361.078 210.92 361.462 210.68C361.846 210.416 362.146 210.068 362.362 209.636C362.602 209.18 362.77 208.652 362.866 208.052C362.962 207.428 363.01 206.756 363.01 206.036C363.01 205.364 362.998 204.716 362.974 204.092C362.95 203.468 362.866 202.916 362.722 202.436C362.602 201.956 362.422 201.572 362.182 201.284C361.942 200.996 361.606 200.852 361.174 200.852ZM377.655 196.604C378.567 196.604 379.407 196.688 380.175 196.856C380.967 197 381.663 197.168 382.263 197.36C382.959 197.6 383.595 197.852 384.171 198.116L382.371 202.148C382.179 202.052 381.927 201.932 381.615 201.788C381.327 201.644 381.003 201.5 380.643 201.356C380.307 201.212 379.947 201.092 379.563 200.996C379.179 200.9 378.807 200.852 378.447 200.852C378.063 200.852 377.739 200.936 377.475 201.104C377.211 201.272 377.079 201.536 377.079 201.896C377.079 202.28 377.319 202.664 377.799 203.048C378.303 203.408 378.963 203.756 379.779 204.092C381.219 204.692 382.323 205.412 383.091 206.252C383.883 207.068 384.279 208.172 384.279 209.564C384.279 210.332 384.135 211.076 383.847 211.796C383.583 212.492 383.175 213.104 382.623 213.632C382.095 214.16 381.423 214.58 380.607 214.892C379.791 215.204 378.855 215.36 377.799 215.36C376.959 215.36 376.167 215.3 375.423 215.18C374.703 215.06 374.031 214.916 373.407 214.748C372.807 214.556 372.267 214.376 371.787 214.208C371.307 214.016 370.923 213.848 370.635 213.704L372.507 209.564C372.627 209.612 372.831 209.72 373.119 209.888C373.431 210.056 373.779 210.224 374.163 210.392C374.571 210.56 374.991 210.716 375.423 210.86C375.879 210.98 376.311 211.04 376.719 211.04C377.223 211.04 377.631 210.944 377.943 210.752C378.279 210.56 378.447 210.272 378.447 209.888C378.447 209.432 378.243 209.024 377.835 208.664C377.451 208.304 376.947 208.004 376.323 207.764C374.523 207.044 373.227 206.24 372.435 205.352C371.667 204.44 371.283 203.312 371.283 201.968C371.283 201.2 371.427 200.492 371.715 199.844C372.003 199.196 372.423 198.632 372.975 198.152C373.527 197.672 374.187 197.3 374.955 197.036C375.747 196.748 376.647 196.604 377.655 196.604ZM392.986 198.296C393.61 197.744 394.33 197.336 395.146 197.072C395.962 196.808 396.814 196.676 397.702 196.676C399.574 196.676 400.906 197.24 401.698 198.368C402.49 199.496 402.886 201.02 402.886 202.94V215H397.162V203.768C397.162 202.928 397.054 202.256 396.838 201.752C396.646 201.224 396.274 200.96 395.722 200.96C395.41 200.96 395.086 201.068 394.75 201.284C394.438 201.476 394.15 201.776 393.886 202.184C393.622 202.568 393.406 203.048 393.238 203.624C393.07 204.176 392.986 204.8 392.986 205.496V215H387.298V189.872L392.986 188.9V198.296ZM411.202 215.144C409.834 215.144 408.73 214.796 407.89 214.1C407.05 213.38 406.63 212.372 406.63 211.076V196.928H412.318V209.456C412.318 210.008 412.402 210.38 412.57 210.572C412.738 210.764 412.99 210.86 413.326 210.86C413.518 210.86 413.71 210.848 413.902 210.824C414.094 210.776 414.214 210.74 414.262 210.716L414.766 214.28C414.742 214.304 414.634 214.364 414.442 214.46C414.25 214.532 413.998 214.628 413.686 214.748C413.374 214.844 413.002 214.928 412.57 215C412.138 215.096 411.682 215.144 411.202 215.144ZM409.546 188.252C410.554 188.252 411.322 188.552 411.85 189.152C412.378 189.752 412.642 190.508 412.642 191.42C412.642 192.356 412.366 193.136 411.814 193.76C411.286 194.384 410.482 194.696 409.402 194.696C408.394 194.696 407.614 194.396 407.062 193.796C406.534 193.172 406.27 192.44 406.27 191.6C406.27 190.64 406.546 189.848 407.098 189.224C407.65 188.576 408.466 188.252 409.546 188.252ZM417.615 222.956V205.64C417.615 204.2 417.507 203.012 417.291 202.076C417.099 201.116 416.871 200.336 416.607 199.736C416.319 199.064 415.995 198.524 415.635 198.116L420.207 196.676C420.495 196.964 420.759 197.312 420.999 197.72C421.191 198.056 421.383 198.488 421.575 199.016C421.767 199.52 421.911 200.108 422.007 200.78C422.463 199.412 423.087 198.392 423.879 197.72C424.695 197.024 425.751 196.676 427.047 196.676C428.175 196.676 429.159 196.892 429.999 197.324C430.863 197.756 431.571 198.368 432.123 199.16C432.699 199.928 433.119 200.864 433.383 201.968C433.671 203.072 433.815 204.308 433.815 205.676C433.815 207.02 433.599 208.28 433.167 209.456C432.735 210.608 432.123 211.616 431.331 212.48C430.563 213.32 429.651 213.992 428.595 214.496C427.539 214.976 426.399 215.216 425.175 215.216C424.503 215.216 423.879 215.144 423.303 215V221.984L417.615 222.956ZM425.931 200.852C425.571 200.852 425.223 201.008 424.887 201.32C424.575 201.608 424.299 202.004 424.059 202.508C423.819 202.988 423.627 203.564 423.483 204.236C423.363 204.884 423.303 205.568 423.303 206.288V210.788C423.471 210.836 423.699 210.896 423.987 210.968C424.275 211.016 424.539 211.04 424.779 211.04C425.355 211.04 425.835 210.92 426.219 210.68C426.603 210.416 426.903 210.068 427.119 209.636C427.359 209.18 427.527 208.652 427.623 208.052C427.719 207.428 427.767 206.756 427.767 206.036C427.767 205.364 427.755 204.716 427.731 204.092C427.707 203.468 427.623 202.916 427.479 202.436C427.359 201.956 427.179 201.572 426.939 201.284C426.699 200.996 426.363 200.852 425.931 200.852ZM437.373 222.956V205.64C437.373 204.2 437.265 203.012 437.049 202.076C436.857 201.116 436.629 200.336 436.365 199.736C436.077 199.064 435.753 198.524 435.393 198.116L439.965 196.676C440.253 196.964 440.517 197.312 440.757 197.72C440.949 198.056 441.141 198.488 441.333 199.016C441.525 199.52 441.669 200.108 441.765 200.78C442.221 199.412 442.845 198.392 443.637 197.72C444.453 197.024 445.509 196.676 446.805 196.676C447.933 196.676 448.917 196.892 449.757 197.324C450.621 197.756 451.329 198.368 451.881 199.16C452.457 199.928 452.877 200.864 453.141 201.968C453.429 203.072 453.573 204.308 453.573 205.676C453.573 207.02 453.357 208.28 452.925 209.456C452.493 210.608 451.881 211.616 451.089 212.48C450.321 213.32 449.409 213.992 448.353 214.496C447.297 214.976 446.157 215.216 444.933 215.216C444.261 215.216 443.637 215.144 443.061 215V221.984L437.373 222.956ZM445.689 200.852C445.329 200.852 444.981 201.008 444.645 201.32C444.333 201.608 444.057 202.004 443.817 202.508C443.577 202.988 443.385 203.564 443.241 204.236C443.121 204.884 443.061 205.568 443.061 206.288V210.788C443.229 210.836 443.457 210.896 443.745 210.968C444.033 211.016 444.297 211.04 444.537 211.04C445.113 211.04 445.593 210.92 445.977 210.68C446.361 210.416 446.661 210.068 446.877 209.636C447.117 209.18 447.285 208.652 447.381 208.052C447.477 207.428 447.525 206.756 447.525 206.036C447.525 205.364 447.513 204.716 447.489 204.092C447.465 203.468 447.381 202.916 447.237 202.436C447.117 201.956 446.937 201.572 446.697 201.284C446.457 200.996 446.121 200.852 445.689 200.852ZM460.983 215.144C459.615 215.144 458.511 214.796 457.671 214.1C456.831 213.38 456.411 212.372 456.411 211.076V196.928H462.099V209.456C462.099 210.008 462.183 210.38 462.351 210.572C462.519 210.764 462.771 210.86 463.107 210.86C463.299 210.86 463.491 210.848 463.683 210.824C463.875 210.776 463.995 210.74 464.043 210.716L464.547 214.28C464.523 214.304 464.415 214.364 464.223 214.46C464.031 214.532 463.779 214.628 463.467 214.748C463.155 214.844 462.783 214.928 462.351 215C461.919 215.096 461.463 215.144 460.983 215.144ZM459.327 188.252C460.335 188.252 461.103 188.552 461.631 189.152C462.159 189.752 462.423 190.508 462.423 191.42C462.423 192.356 462.147 193.136 461.595 193.76C461.067 194.384 460.263 194.696 459.183 194.696C458.175 194.696 457.395 194.396 456.843 193.796C456.315 193.172 456.051 192.44 456.051 191.6C456.051 190.64 456.327 189.848 456.879 189.224C457.431 188.576 458.247 188.252 459.327 188.252ZM477.261 215V203.768C477.261 202.928 477.153 202.256 476.937 201.752C476.745 201.224 476.373 200.96 475.821 200.96C475.149 200.96 474.525 201.404 473.949 202.292C473.373 203.156 473.085 204.38 473.085 205.964V215H467.397V205.64C467.397 204.2 467.289 203.012 467.073 202.076C466.881 201.116 466.653 200.336 466.389 199.736C466.101 199.064 465.777 198.524 465.417 198.116L469.989 196.676C470.205 196.916 470.421 197.192 470.637 197.504C470.829 197.768 471.009 198.116 471.177 198.548C471.369 198.956 471.525 199.424 471.645 199.952C472.269 198.824 473.121 197.996 474.201 197.468C475.305 196.94 476.505 196.676 477.801 196.676C479.673 196.676 481.005 197.252 481.797 198.404C482.589 199.532 482.985 201.044 482.985 202.94V215H477.261ZM489.704 216.836C490.76 217.196 491.672 217.472 492.44 217.664C493.232 217.88 494.072 217.988 494.96 217.988C495.92 217.988 496.688 217.712 497.264 217.16C497.864 216.608 498.164 215.816 498.164 214.784C498.164 213.68 497.996 212.696 497.66 211.832C497.252 212.912 496.652 213.752 495.86 214.352C495.068 214.928 494.036 215.216 492.764 215.216C491.588 215.216 490.556 215 489.668 214.568C488.804 214.136 488.084 213.536 487.508 212.768C486.932 211.976 486.5 211.028 486.212 209.924C485.948 208.82 485.816 207.596 485.816 206.252C485.816 204.884 486.032 203.612 486.464 202.436C486.92 201.26 487.544 200.252 488.336 199.412C489.128 198.548 490.076 197.876 491.18 197.396C492.284 196.916 493.508 196.676 494.852 196.676C495.572 196.676 496.316 196.724 497.084 196.82C497.876 196.916 498.608 197.024 499.28 197.144C499.976 197.264 500.576 197.384 501.08 197.504C501.608 197.6 501.956 197.672 502.124 197.72L501.98 206.684C501.98 207.452 502.04 208.172 502.16 208.844C502.304 209.492 502.448 210.14 502.592 210.788C502.76 211.412 502.916 212.06 503.06 212.732C503.204 213.404 503.276 214.124 503.276 214.892C503.276 217.412 502.556 219.344 501.116 220.688C499.7 222.056 497.768 222.74 495.32 222.74C494.216 222.74 493.064 222.608 491.864 222.344C490.664 222.08 489.5 221.708 488.372 221.228L489.704 216.836ZM493.7 211.04C494.084 211.04 494.432 210.884 494.744 210.572C495.056 210.236 495.332 209.792 495.572 209.24C495.812 208.688 495.992 208.052 496.112 207.332C496.256 206.612 496.328 205.856 496.328 205.064V201.14C496.16 201.068 495.92 201.008 495.608 200.96C495.32 200.888 495.068 200.852 494.852 200.852C494.276 200.852 493.796 200.984 493.412 201.248C493.028 201.488 492.716 201.836 492.476 202.292C492.26 202.724 492.104 203.252 492.008 203.876C491.912 204.5 491.864 205.172 491.864 205.892C491.864 206.564 491.876 207.212 491.9 207.836C491.924 208.436 491.996 208.976 492.116 209.456C492.26 209.936 492.452 210.32 492.692 210.608C492.932 210.896 493.268 211.04 493.7 211.04Z" fill="#FE6D24"/>
<rect x="272.81" y="557.824" width="253.381" height="55.033" rx="14" fill="#FE6D24"/>
<path d="M343.172 580.326H339.283C339.212 579.823 339.067 579.376 338.848 578.986C338.629 578.589 338.348 578.252 338.005 577.974C337.662 577.696 337.265 577.483 336.815 577.335C336.371 577.187 335.889 577.113 335.368 577.113C334.427 577.113 333.607 577.346 332.909 577.814C332.211 578.276 331.669 578.95 331.284 579.838C330.9 580.72 330.707 581.791 330.707 583.052C330.707 584.348 330.9 585.437 331.284 586.319C331.675 587.201 332.22 587.867 332.918 588.316C333.616 588.766 334.424 588.991 335.342 588.991C335.856 588.991 336.333 588.923 336.771 588.787C337.215 588.651 337.608 588.453 337.952 588.192C338.295 587.926 338.579 587.603 338.804 587.224C339.035 586.846 339.195 586.414 339.283 585.928L343.172 585.946C343.071 586.781 342.82 587.586 342.417 588.361C342.021 589.13 341.485 589.82 340.81 590.429C340.142 591.033 339.343 591.512 338.413 591.868C337.49 592.217 336.445 592.391 335.279 592.391C333.658 592.391 332.208 592.024 330.929 591.291C329.657 590.557 328.651 589.494 327.911 588.103C327.177 586.713 326.81 585.029 326.81 583.052C326.81 581.069 327.183 579.382 327.929 577.992C328.674 576.601 329.686 575.541 330.965 574.813C332.243 574.079 333.681 573.712 335.279 573.712C336.333 573.712 337.309 573.86 338.209 574.156C339.115 574.452 339.917 574.884 340.615 575.452C341.313 576.015 341.882 576.704 342.32 577.521C342.763 578.338 343.048 579.273 343.172 580.326ZM362.636 583.052C362.636 585.035 362.261 586.721 361.509 588.112C360.763 589.503 359.745 590.566 358.455 591.299C357.171 592.027 355.727 592.391 354.123 592.391C352.507 592.391 351.057 592.024 349.773 591.291C348.488 590.557 347.473 589.494 346.727 588.103C345.982 586.713 345.609 585.029 345.609 583.052C345.609 581.069 345.982 579.382 346.727 577.992C347.473 576.601 348.488 575.541 349.773 574.813C351.057 574.079 352.507 573.712 354.123 573.712C355.727 573.712 357.171 574.079 358.455 574.813C359.745 575.541 360.763 576.601 361.509 577.992C362.261 579.382 362.636 581.069 362.636 583.052ZM358.739 583.052C358.739 581.768 358.547 580.684 358.162 579.803C357.783 578.921 357.248 578.252 356.555 577.796C355.863 577.341 355.052 577.113 354.123 577.113C353.193 577.113 352.383 577.341 351.69 577.796C350.998 578.252 350.459 578.921 350.074 579.803C349.696 580.684 349.506 581.768 349.506 583.052C349.506 584.336 349.696 585.419 350.074 586.301C350.459 587.183 350.998 587.852 351.69 588.308C352.383 588.763 353.193 588.991 354.123 588.991C355.052 588.991 355.863 588.763 356.555 588.308C357.248 587.852 357.783 587.183 358.162 586.301C358.547 585.419 358.739 584.336 358.739 583.052ZM365.484 573.961H370.225L375.232 586.177H375.445L380.452 573.961H385.193V592.143H381.464V580.309H381.313L376.608 592.054H374.069L369.364 580.264H369.213V592.143H365.484V573.961ZM388.36 592.143V573.961H395.533C396.912 573.961 398.087 574.224 399.058 574.751C400.028 575.272 400.768 575.997 401.277 576.926C401.792 577.849 402.05 578.915 402.05 580.122C402.05 581.33 401.789 582.395 401.268 583.318C400.748 584.242 399.993 584.961 399.005 585.476C398.022 585.99 396.832 586.248 395.436 586.248H390.864V583.167H394.814C395.554 583.167 396.164 583.04 396.643 582.786C397.128 582.525 397.489 582.167 397.726 581.711C397.969 581.25 398.09 580.72 398.09 580.122C398.09 579.519 397.969 578.992 397.726 578.542C397.489 578.086 397.128 577.734 396.643 577.486C396.158 577.231 395.542 577.104 394.796 577.104H392.204V592.143H388.36ZM404.547 592.143V573.961H411.72C413.093 573.961 414.265 574.207 415.235 574.698C416.212 575.183 416.955 575.873 417.464 576.766C417.979 577.654 418.236 578.699 418.236 579.9C418.236 581.108 417.976 582.146 417.455 583.016C416.934 583.881 416.179 584.543 415.191 585.005C414.209 585.467 413.019 585.698 411.622 585.698H406.819V582.608H411.001C411.735 582.608 412.344 582.507 412.83 582.306C413.315 582.105 413.676 581.803 413.913 581.401C414.155 580.998 414.277 580.498 414.277 579.9C414.277 579.297 414.155 578.788 413.913 578.373C413.676 577.959 413.312 577.645 412.821 577.432C412.335 577.213 411.723 577.104 410.983 577.104H408.391V592.143H404.547ZM414.365 583.869L418.884 592.143H414.641L410.22 583.869H414.365ZM424.087 592.143H419.967L426.244 573.961H431.198L437.466 592.143H433.346L428.792 578.116H428.65L424.087 592.143ZM423.829 584.996H433.559V587.997H423.829V584.996ZM439.654 592.143V573.961H446.827C448.2 573.961 449.372 574.207 450.343 574.698C451.319 575.183 452.062 575.873 452.571 576.766C453.086 577.654 453.344 578.699 453.344 579.9C453.344 581.108 453.083 582.146 452.562 583.016C452.042 583.881 451.287 584.543 450.299 585.005C449.316 585.467 448.126 585.698 446.73 585.698H441.927V582.608H446.108C446.842 582.608 447.452 582.507 447.937 582.306C448.422 582.105 448.783 581.803 449.02 581.401C449.263 580.998 449.384 580.498 449.384 579.9C449.384 579.297 449.263 578.788 449.02 578.373C448.783 577.959 448.419 577.645 447.928 577.432C447.443 577.213 446.83 577.104 446.09 577.104H443.498V592.143H439.654ZM449.473 583.869L453.992 592.143H449.748L445.327 583.869H449.473Z" fill="white"/>
<rect x="463.326" y="479.241" width="36.9921" height="32.7223" rx="4" fill="#D65B1D"/>
<line x1="481.688" y1="479.241" x2="481.688" y2="511.964" stroke="white" stroke-width="4"/>
<line x1="500.318" y1="496.115" x2="463.326" y2="496.115" stroke="white" stroke-width="4"/>
<path d="M468.66 463.669C468.66 463.669 476.782 460.723 482.176 460.694C487.706 460.664 496.048 463.669 496.048 463.669C496.048 463.669 496.414 451.757 493.914 445.077C491.414 438.397 488.477 434.098 483.243 429.459C477.413 433.501 474.353 437.281 471.505 443.961C468.658 450.641 468.66 463.669 468.66 463.669Z" fill="#FE6D24"/>
<path d="M515.967 463.669C515.967 463.669 515.967 430.947 483.243 429.459C488.477 434.098 491.414 438.397 493.914 445.077C496.414 451.757 496.048 463.669 496.048 463.669C496.048 463.669 502.118 460.694 506.008 460.694C509.897 460.694 515.967 463.669 515.967 463.669Z" fill="#B44C17"/>
<path d="M483.243 429.459C450.52 427.972 450.52 463.669 450.52 463.669C450.52 463.669 456.214 460.556 460.123 460.694C463.635 460.818 468.66 463.669 468.66 463.669C468.66 463.669 468.658 450.641 471.505 443.961C474.353 437.281 477.413 433.501 483.243 429.459Z" fill="#B44C17"/>
<path d="M352.589 414C359.78 414 365.609 419.829 365.609 427.02C365.609 430.908 363.904 434.399 361.201 436.785C358.906 438.81 355.891 440.04 352.589 440.04C345.399 440.04 339.569 434.21 339.569 427.02H325.248C325.248 434.21 319.418 440.04 312.228 440.04C309.191 440.04 306.396 439 304.182 437.256C301.153 434.872 299.208 431.173 299.208 427.02C299.208 419.829 305.037 414 312.228 414C319.418 414 325.248 419.829 325.248 427.02H339.569C339.569 419.829 345.399 414 352.589 414Z" fill="#F0F0F0"/>
<path d="M339.569 427.02C339.569 419.829 345.399 414 352.589 414C359.78 414 365.609 419.829 365.609 427.02C365.609 430.908 363.904 434.399 361.201 436.785M339.569 427.02C339.569 434.21 345.399 440.04 352.589 440.04C355.891 440.04 358.906 438.81 361.201 436.785M339.569 427.02H325.248M325.248 427.02C325.248 434.21 319.418 440.04 312.228 440.04C309.191 440.04 306.396 439 304.182 437.256M325.248 427.02C325.248 419.829 319.418 414 312.228 414C305.037 414 299.208 419.829 299.208 427.02C299.208 431.173 301.153 434.872 304.182 437.256M361.201 436.785L369.013 444.597M304.182 437.256L296.604 447.2" stroke="#B44C17" stroke-width="3" stroke-linecap="round"/>
<path d="M365.609 427.02H370.817" stroke="#B44C17" stroke-width="4"/>
<path d="M294 427.02H299.208" stroke="#B44C17" stroke-width="4"/>
<path d="M364.278 268.137C364.278 276.58 357.405 283.424 348.926 283.424C340.447 283.424 333.574 276.58 333.574 268.137C333.574 259.694 340.447 252.85 348.926 252.85C357.405 252.85 364.278 259.694 364.278 268.137Z" fill="#FE6D24"/>
<path d="M372.957 321.641H325.232C325.232 321.641 317.554 294.939 348.926 295.163C380.298 295.387 372.957 321.641 372.957 321.641Z" fill="#FE6D24"/>
<path d="M463.132 307.883V362.916M463.132 307.883C460.283 307.883 457.536 308.316 454.951 309.119M463.132 307.883C465.981 307.883 468.728 308.316 471.313 309.119M463.132 362.916C460.283 362.916 457.536 362.483 454.951 361.679M463.132 362.916C465.981 362.916 468.728 362.483 471.313 361.679M435.802 332.177C435.679 333.234 435.615 334.309 435.615 335.399C435.615 336.919 435.739 338.409 435.975 339.861M435.802 332.177C436.654 324.877 440.362 318.45 445.779 314.043M435.802 332.177C435.802 332.177 451.64 327.219 463.132 327.219C474.624 327.219 490.462 332.177 490.462 332.177M490.462 332.177C490.585 333.234 490.648 334.309 490.648 335.399C490.648 336.919 490.525 338.409 490.288 339.861M490.462 332.177C489.61 324.877 485.902 318.45 480.485 314.043M490.288 339.861C489.182 346.647 485.593 352.6 480.485 356.756M490.288 339.861C490.288 339.861 474.389 346.059 463.132 346.059C451.875 346.059 435.975 339.861 435.975 339.861M435.975 339.861C437.082 346.647 440.671 352.6 445.779 356.756M445.779 356.756C445.779 356.756 441.565 343.9 441.565 335.399C441.565 326.898 445.779 314.043 445.779 314.043M445.779 356.756C448.464 358.939 451.567 360.627 454.951 361.679M445.779 314.043C448.464 311.859 451.567 310.172 454.951 309.119M480.485 356.756C480.485 356.756 484.203 343.865 484.203 335.399C484.203 326.934 480.485 314.043 480.485 314.043M480.485 356.756C477.8 358.939 474.696 360.627 471.313 361.679M480.485 314.043C477.8 311.859 474.696 310.172 471.313 309.119M454.951 361.679C454.951 361.679 451.977 345.662 451.977 335.399C451.977 325.136 454.951 309.119 454.951 309.119M471.313 361.679C471.313 361.679 473.791 345.662 473.791 335.399C473.791 325.136 471.313 309.119 471.313 309.119" stroke="#B44C17" stroke-width="2"/>
<path d="M371.984 302.15C371.984 302.15 480.155 309.226 464.852 274.634C458.436 260.131 450.3 246.765 434.469 247.691C420.991 248.478 412.272 257.208 408.099 270.048C401.1 291.581 443.641 314.762 443.641 314.762M483.769 356.037C483.769 356.037 500.41 375.387 505.553 390.432C526.556 451.874 339.308 393.299 339.308 393.299C339.308 393.299 311.421 386.319 312.364 373.234C313.262 360.784 326.888 354.788 339.308 356.037C350.092 357.121 356.678 363.335 361.092 373.234C369.745 392.643 359 414 359 414M341 435.5C341 435.5 293.54 483.839 307.205 506.231C317.324 522.811 332.893 524.102 351.919 528.015C389.99 535.843 407.68 498.8 446.507 497.059C452.993 496.768 463.132 497.059 463.132 497.059" stroke="#D65B1D" stroke-width="2" stroke-linejoin="bevel" stroke-dasharray="5 5"/>
</svg>
